<svg width="33" height="29" fill="none" xmlns="http://www.w3.org/2000/svg"><g id="Group 2"><path id="Rectangle 4" fill="#AE0F0F" d="M0 0h33v29H0z"/><g id="Group"><path id="Vector" d="M12.336 19.311a7.29 7.29 0 1 0 8.975-8.974 7.29 7.29 0 1 0-8.975 8.974Zm9.19-6.176a4.754 4.754 0 1 1-6.394 6.392 7.29 7.29 0 0 0 6.394-6.395v.003Zm-6.905 3.892a4.754 4.754 0 0 1 4.405-4.405 4.753 4.753 0 0 1-4.405 4.405Zm-.332-9.491a4.754 4.754 0 0 1 4.227 2.585 7.288 7.288 0 0 0-6.395 6.396 4.754 4.754 0 0 1 2.168-8.981Z" fill="#fff"/></g></g></svg>