<svg width="25" height="25" fill="none" xmlns="http://www.w3.org/2000/svg"><g id="Group"><path id="Vector" d="m24.705 23.233-6.126-6.121a10.467 10.467 0 0 0 2.377-6.635C20.956 4.699 16.254 0 10.479 0 9.067 0 7.696.276 6.404.824a10.467 10.467 0 0 0-3.33 2.245A10.476 10.476 0 0 0 .826 6.4 10.387 10.387 0 0 0 0 10.475c0 5.778 4.7 10.477 10.476 10.477 2.422 0 4.763-.842 6.635-2.376l6.121 6.12c.197.198.458.305.734.305.279 0 .54-.107.734-.304a1.03 1.03 0 0 0 .005-1.463Zm-5.824-12.759c0 4.635-3.77 8.403-8.402 8.403-4.635 0-8.402-3.77-8.402-8.403 0-4.632 3.77-8.402 8.402-8.402s8.402 3.77 8.402 8.402Z" fill="#fff"/></g></svg>