<svg width="35" height="43" fill="none" xmlns="http://www.w3.org/2000/svg"><g id="Group"><path id="Vector" d="m9.108 22.188 3.104 3.103a1.465 1.465 0 0 1-.746.208 1.42 1.42 0 0 1-1.01-.416l-1.14-1.14a1.426 1.426 0 0 1-.208-1.755Zm5.884-5.942 3.16 3.16 1.255-1.253-3.16-3.16-1.255 1.253Zm10.09-5.79-1.139-1.14a1.426 1.426 0 0 0-1.756-.207l3.104 3.103a1.426 1.426 0 0 0-.208-1.756Zm-4.93-1.35a2.151 2.151 0 0 0-3.04 0l-.84.84a2.151 2.151 0 0 0 0 3.04l5.14 5.14a2.153 2.153 0 0 0 3.04 0l.84-.84a2.151 2.151 0 0 0 0-3.04l-5.14-5.14Zm-7.166 7.167a2.15 2.15 0 0 0-3.04 0l-.84.84a2.151 2.151 0 0 0 0 3.04l5.14 5.14a2.152 2.152 0 0 0 3.04 0l.84-.84a2.15 2.15 0 0 0 0-3.04l-5.14-5.14ZM34.4 17.2c0 13.11-16.088 25.153-16.774 25.66a.716.716 0 0 1-.852 0C16.088 42.353 0 30.31 0 17.2a17.2 17.2 0 1 1 34.4 0Zm-4.3 0a12.9 12.9 0 1 0-12.9 12.9 12.915 12.915 0 0 0 12.9-12.9Z" fill="#AE0F0F"/></g></svg>