<svg width="29" height="13" viewBox="0 0 29 13" fill="none" xmlns="http://www.w3.org/2000/svg">
<path d="M28.4978 6.80752C28.4978 7.08977 28.3097 7.27783 28.0275 7.27783L1.78611 7.27783C1.50386 7.27783 1.3158 7.08977 1.3158 6.80752C1.3158 6.52528 1.50386 6.33721 1.78611 6.33721L27.9806 6.33721C28.2629 6.33721 28.4979 6.52528 28.4979 6.80752L28.4978 6.80752Z" fill="#AE0F0F"/>
<path d="M10.0631 1.30515C10.0631 1.44628 9.96889 1.5874 9.82806 1.68128L2.11513 6.80742L9.87492 11.8863C10.1099 12.0274 10.1572 12.3097 10.016 12.5447C9.87492 12.7797 9.59268 12.8269 9.35768 12.6858L0.375 6.80743L9.35692 0.929043C9.59193 0.78792 9.87418 0.834865 10.0153 1.07017C10.0625 1.16405 10.0625 1.21129 10.0625 1.30517L10.0631 1.30515Z" fill="#AE0F0F"/>
</svg>
