<svg width="29" height="13" viewBox="0 0 29 13" fill="none" xmlns="http://www.w3.org/2000/svg">
<path d="M0.677267 6.80771C0.677267 6.52547 0.865332 6.3374 1.14758 6.3374L27.3889 6.3374C27.6712 6.3374 27.8593 6.52547 27.8593 6.80771C27.8593 7.08996 27.6712 7.27802 27.3889 7.27802L1.19444 7.27802C0.912191 7.27802 0.677185 7.08996 0.677185 6.80771L0.677267 6.80771Z" fill="white"/>
<path d="M19.112 12.3101C19.112 12.169 19.2062 12.0278 19.347 11.934L27.0599 6.80782L19.3001 1.72892C19.0651 1.5878 19.0179 1.30555 19.159 1.07055C19.3001 0.835543 19.5824 0.788304 19.8174 0.929427L28.8 6.80781L19.8181 12.6862C19.5831 12.8273 19.3009 12.7804 19.1598 12.5451C19.1125 12.4512 19.1125 12.4039 19.1125 12.3101L19.112 12.3101Z" fill="white"/>
</svg>
